<svg width="118" height="112" viewBox="0 0 118 112" fill="none" xmlns="http://www.w3.org/2000/svg">
<path d="M79.4512 43.3299C71.0812 43.3299 62.5612 42.9899 54.5912 40.7699C46.7712 38.5999 39.5912 34.3899 33.1912 29.5199C29.0012 26.3499 25.1912 23.8299 19.7512 24.2099C14.4247 24.5015 9.3336 26.5001 5.23121 29.9099C-1.68879 35.9099 -0.648793 47.1399 2.12121 55.0299C6.28121 66.9099 18.9412 75.1399 29.7012 80.5199C42.1312 86.7299 55.7912 90.3299 69.4812 92.4099C81.4812 94.2299 96.9012 95.5599 107.301 87.7199C116.851 80.5199 119.471 64.0799 117.131 52.9799C116.564 49.6978 114.818 46.7357 112.221 44.6499C105.511 39.7499 95.5012 43.0199 87.9612 43.1899C85.1612 43.2499 82.3112 43.3199 79.4512 43.3299Z" fill="#F2F2F2"/>
<path d="M58.9712 111.86C79.2456 111.86 95.6812 110.835 95.6812 109.57C95.6812 108.305 79.2456 107.28 58.9712 107.28C38.6969 107.28 22.2612 108.305 22.2612 109.57C22.2612 110.835 38.6969 111.86 58.9712 111.86Z" fill="#F2F2F2"/>
<path d="M80.981 2.52983C81.5222 2.52983 81.961 2.09106 81.961 1.54982C81.961 1.00858 81.5222 0.569824 80.981 0.569824C80.4397 0.569824 80.001 1.00858 80.001 1.54982C80.001 2.09106 80.4397 2.52983 80.981 2.52983Z" fill="#CFCFCF"/>
<path d="M17.3311 86.1099C17.8723 86.1099 18.3111 85.6711 18.3111 85.1299C18.3111 84.5887 17.8723 84.1499 17.3311 84.1499C16.7898 84.1499 16.3511 84.5887 16.3511 85.1299C16.3511 85.6711 16.7898 86.1099 17.3311 86.1099Z" fill="#CFCFCF"/>
<path d="M31.751 1.96C32.2922 1.96 32.731 1.52124 32.731 0.98C32.731 0.43876 32.2922 0 31.751 0C31.2098 0 30.771 0.43876 30.771 0.98C30.771 1.52124 31.2098 1.96 31.751 1.96Z" fill="#CFCFCF"/>
<path d="M109.581 38.69C110.122 38.69 110.561 38.2512 110.561 37.71C110.561 37.1687 110.122 36.73 109.581 36.73C109.04 36.73 108.601 37.1687 108.601 37.71C108.601 38.2512 109.04 38.69 109.581 38.69Z" fill="#CFCFCF"/>
<path d="M55.2109 93.1001V97.4101" stroke="#BABABA" stroke-linecap="round" stroke-linejoin="round"/>
<path d="M53.0508 95.2598H57.3608" stroke="#BABABA" stroke-linecap="round" stroke-linejoin="round"/>
<path d="M98.811 19.9302V24.2402" stroke="#BABABA" stroke-linecap="round" stroke-linejoin="round"/>
<path d="M96.6509 22.0898H100.961" stroke="#BABABA" stroke-linecap="round" stroke-linejoin="round"/>
<path d="M49.3911 13.8599V18.1699" stroke="#BABABA" stroke-linecap="round" stroke-linejoin="round"/>
<path d="M47.2412 16.0098H51.5412" stroke="#BABABA" stroke-linecap="round" stroke-linejoin="round"/>
<path d="M24.6211 46.13C31.9168 46.13 37.8311 40.2156 37.8311 32.92C37.8311 25.6243 31.9168 19.71 24.6211 19.71C17.3255 19.71 11.4111 25.6243 11.4111 32.92C11.4111 40.2156 17.3255 46.13 24.6211 46.13Z" fill="white" stroke="#BABABA" stroke-linecap="round" stroke-linejoin="round"/>
<path d="M24.621 42.5398C29.934 42.5398 34.241 38.2328 34.241 32.9198C34.241 27.6068 29.934 23.2998 24.621 23.2998C19.308 23.2998 15.001 27.6068 15.001 32.9198C15.001 38.2328 19.308 42.5398 24.621 42.5398Z" fill="#D2D2D2"/>
<path d="M24.361 39.12L24.301 37.6C23.4867 37.6284 22.6803 37.4312 21.971 37.03L22.291 36.03C22.951 36.4269 23.7114 36.6248 24.481 36.6C25.551 36.6 26.251 35.91 26.211 35.05C26.171 34.19 25.571 33.73 24.441 33.33C22.881 32.79 21.911 32.13 21.861 30.82C21.8466 30.2069 22.0607 29.6104 22.4618 29.1464C22.8629 28.6825 23.4223 28.3844 24.031 28.31L23.971 26.79H24.901L24.961 28.25C25.6552 28.2269 26.3437 28.3819 26.961 28.7L26.621 29.7C26.036 29.3829 25.3758 29.2308 24.711 29.26C23.551 29.31 23.141 30.02 23.161 30.62C23.161 31.4 23.771 31.77 25.101 32.26C26.671 32.83 27.481 33.58 27.541 34.92C27.5539 35.5649 27.3283 36.1919 26.9076 36.6809C26.4869 37.1699 25.9006 37.4865 25.261 37.57L25.321 39.14L24.361 39.12Z" fill="white"/>
<path d="M87.791 75.32L38.721 87.64C37.7482 87.8831 36.7329 87.9013 35.752 87.6934C34.7712 87.4854 33.8506 87.0567 33.0602 86.4398C32.2698 85.8229 31.6303 85.034 31.1904 84.133C30.7504 83.232 30.5215 82.2427 30.521 81.24V28.29L85.911 14.39C86.4826 14.2473 87.0792 14.2366 87.6556 14.3588C88.232 14.4809 88.7729 14.7328 89.2375 15.0951C89.702 15.4575 90.0779 15.9209 90.3367 16.4502C90.5955 16.9795 90.7303 17.5608 90.731 18.15V71.57C90.7295 72.4335 90.4393 73.2716 89.9066 73.9511C89.3738 74.6307 88.6292 75.1125 87.791 75.32Z" fill="#D2D2D2"/>
<path d="M30.521 28.6401H99.791C100.299 28.6401 100.802 28.7402 101.272 28.9347C101.742 29.1292 102.168 29.4143 102.527 29.7736C102.887 30.133 103.172 30.5596 103.366 31.0292C103.561 31.4987 103.661 32.0019 103.661 32.5101V86.1701C103.661 86.6784 103.561 87.1816 103.366 87.6511C103.172 88.1206 102.887 88.5473 102.527 88.9066C102.168 89.266 101.742 89.5511 101.272 89.7455C100.802 89.94 100.299 90.0401 99.791 90.0401H35.181C33.9451 90.0401 32.7598 89.5492 31.8859 88.6753C31.012 87.8013 30.521 86.616 30.521 85.3801V28.6401Z" fill="white" stroke="#BABABA" stroke-linecap="round" stroke-linejoin="round"/>
<path d="M93.9109 63.6201C96.2746 63.6201 98.1909 61.7038 98.1909 59.3401C98.1909 56.9763 96.2746 55.0601 93.9109 55.0601C91.5471 55.0601 89.6309 56.9763 89.6309 59.3401C89.6309 61.7038 91.5471 63.6201 93.9109 63.6201Z" fill="#D2D2D2"/>
</svg>
