<svg width="37" height="37" viewBox="0 0 37 37" fill="none" xmlns="http://www.w3.org/2000/svg">
<rect width="37" height="37" rx="6" fill="#78C143"/>
<path d="M15 16.75H13.25C12.7859 16.75 12.3408 16.9344 12.0126 17.2626C11.6844 17.5908 11.5 18.0359 11.5 18.5V24.625C11.5 25.0891 11.6844 25.5342 12.0126 25.8624C12.3408 26.1906 12.7859 26.375 13.25 26.375H23.75C24.2141 26.375 24.6592 26.1906 24.9874 25.8624C25.3156 25.5342 25.5 25.0891 25.5 24.625V18.5C25.5 18.0359 25.3156 17.5908 24.9874 17.2626C24.6592 16.9344 24.2141 16.75 23.75 16.75H22M15 16.75V14.125C15 13.1967 15.3687 12.3065 16.0251 11.6501C16.6815 10.9937 17.5717 10.625 18.5 10.625C19.4283 10.625 20.3185 10.9937 20.9749 11.6501C21.6313 12.3065 22 13.1967 22 14.125V16.75M15 16.75H22M18.5 20.25V22.875" stroke="white" stroke-width="2" stroke-linecap="round" stroke-linejoin="round"/>
</svg>
