<svg width="215" height="68" viewBox="0 0 215 68" fill="none" xmlns="http://www.w3.org/2000/svg">
<g clip-path="url(#clip0_1_25)">
<path d="M55.3801 12.3568L52.767 7.07249L47.4764 10.4735L52.7075 17.1403L54.5966 19.5495L56.223 17.5309L70.037 0.340607L55.3801 12.3568Z" fill="#78C144"/>
<path d="M0 52.6229L8.88045 9.64203H28.7239C31.4658 9.64203 33.7616 9.90249 35.6061 10.4234C37.4555 10.9443 38.8241 11.6856 39.7166 12.6523C40.6091 13.614 41.214 14.5908 41.5363 15.5725C41.8536 16.5542 42.0123 17.7113 42.0123 19.0336C42.0123 21.8836 41.328 24.2228 39.9546 26.046C38.5861 27.8742 36.6473 29.0663 34.1434 29.6273V29.7475C35.968 30.2284 37.4308 31.2502 38.5216 32.8179C39.6124 34.3807 40.1628 36.1688 40.1628 38.1774C40.1628 42.5902 38.4621 46.1014 35.0656 48.711C31.6691 51.3206 26.9091 52.6229 20.7954 52.6229H0ZM14.8404 34.0802L12.8124 43.8324H21.5144C23.82 43.8324 25.6546 43.4517 27.0281 42.6904C28.3966 41.929 29.0858 40.4815 29.0858 38.3577C29.0858 37.1155 28.7189 36.1588 27.9851 35.4977C27.2512 34.8365 26.4827 34.4358 25.6893 34.2955C24.896 34.1553 23.8795 34.0852 22.6498 34.0852H14.8454L14.8404 34.0802ZM18.0584 18.4325L16.3924 26.5619H24.2564C26.562 26.5619 28.2478 26.1912 29.3238 25.4499C30.3948 24.7086 30.9303 23.4915 30.9303 21.8085C30.9303 19.5595 29.061 18.4376 25.3274 18.4376H18.0584V18.4325Z" fill="#20428C"/>
<path d="M42.9048 52.6229H53.0348L59.4707 21.3777H49.3408L42.9048 52.6229Z" fill="#20428C"/>
<path d="M59.7087 53.5245H69.8387C69.8387 54.7266 70.2155 55.6532 70.9692 56.2944C71.7229 56.9355 72.6997 57.256 73.8897 57.256C74.7623 57.256 75.5359 57.1759 76.2152 57.0156C76.8895 56.8553 77.4746 56.5648 77.9754 56.1441C78.4712 55.7233 78.8679 55.3427 79.1654 55.0021C79.4629 54.6615 79.7405 54.1005 79.9984 53.3141C80.2562 52.5327 80.4446 51.9517 80.5636 51.566C80.6826 51.1853 80.8413 50.4841 81.0396 49.4573C81.238 48.4355 81.3768 47.7393 81.4561 47.3786H81.3371C80.5835 48.5807 79.4381 49.5074 77.9109 50.1485C76.3788 50.7896 74.8218 51.1102 73.2352 51.1102C69.7792 51.1102 66.9777 49.9882 64.8307 47.7393C62.6837 45.4903 61.6127 42.6002 61.6127 39.069C61.6127 35.9785 62.1582 33.0483 63.254 30.2784C64.3448 27.5086 66.0654 25.1845 68.4107 23.2961C70.756 21.4128 73.4781 20.4661 76.5771 20.4661C81.5008 20.4661 84.6593 22.2342 86.0526 25.7655H86.1716L87.0046 21.3727H96.718L91.5316 46.5972C90.1829 53.1789 88.2243 57.6517 85.6608 60.0209C83.0974 62.3901 78.977 63.5722 73.2947 63.5722C71.5047 63.5722 69.8486 63.4219 68.3165 63.1214C66.7843 62.8209 65.3365 62.31 63.968 61.5837C62.5995 60.8624 61.5334 59.8156 60.7797 58.4532C60.0261 57.0908 59.6691 55.4428 59.7087 53.5144V53.5245ZM76.6961 44.193C79.0414 44.193 80.8562 43.2614 82.1503 41.3931C83.4395 39.5248 84.089 37.2908 84.089 34.6812C84.089 32.7528 83.6825 31.2101 82.8693 30.048C82.0561 28.886 80.8512 28.2999 79.2645 28.2999C76.8399 28.2999 74.9855 29.2817 73.6913 31.2502C72.4022 33.2186 71.7526 35.5027 71.7526 38.1123C71.7526 39.9205 72.1493 41.383 72.9426 42.505C73.736 43.627 74.9904 44.188 76.6961 44.188V44.193Z" fill="#20428C"/>
<path d="M96.6585 52.6229L105.598 9.64203H126.518C130.291 9.64203 133.281 10.8141 135.488 13.1632C137.694 15.5124 138.795 18.6129 138.795 22.4647C138.795 27.6839 137.094 31.6959 133.698 34.5059C130.301 37.3159 125.898 38.7183 120.498 38.7183H110.666L107.745 52.6229H96.6635H96.6585ZM114.771 18.8533L112.565 29.5071H120.369C125.253 29.5071 127.698 27.4985 127.698 23.4865C127.698 21.6382 127.113 20.406 125.938 19.7849C124.768 19.1638 123.126 18.8533 121.019 18.8533H114.762H114.771Z" fill="#20428C"/>
<path d="M157.027 20.4761C148.285 20.4761 143.237 23.9873 141.894 31.0097H151.488C151.687 29.6073 152.242 28.6005 153.154 27.9994C154.067 27.3984 155.381 27.0978 157.086 27.0978C159.942 27.0978 161.38 28.0996 161.38 30.1081C161.38 30.5489 161.326 30.9496 161.231 31.3103C161.132 31.6709 160.959 31.9814 160.721 32.2419C160.483 32.5074 160.26 32.7378 160.036 32.9381C159.813 33.1385 159.496 33.2988 159.079 33.419C158.663 33.5442 158.316 33.6394 158.038 33.7245C157.761 33.8047 157.349 33.8698 156.818 33.9349C156.278 33.995 155.871 34.0351 155.594 34.0501C155.316 34.0751 154.89 34.0902 154.314 34.1152C153.734 34.1302 153.348 34.1453 153.149 34.1453C151.359 34.3055 149.812 34.4859 148.503 34.6912C147.189 34.8916 145.821 35.2422 144.388 35.7431C142.955 36.244 141.795 36.855 140.907 37.5763C140.01 38.3026 139.276 39.2693 138.696 40.4915C138.12 41.7186 137.833 43.1311 137.833 44.739C137.833 47.7893 138.745 50.0183 140.575 51.4208C142.404 52.8232 144.844 53.5245 147.903 53.5245C152.391 53.5245 155.509 52.2222 157.26 49.6126H157.379V50.5793C157.379 51.2204 157.453 51.9016 157.617 52.6229H167.568C167.291 51.7814 167.152 50.98 167.152 50.2136C167.152 48.8863 167.469 46.9428 168.109 44.3733C168.183 44.0127 168.421 43.0009 168.823 41.3329C169.224 39.665 169.571 38.1824 169.864 36.8801C170.166 35.5728 170.454 34.1152 170.732 32.5124C171.009 30.9045 171.148 29.6173 171.148 28.6606C171.148 23.2009 166.438 20.4711 157.027 20.4711V20.4761ZM159.436 40.3412C159.298 40.9823 159.05 41.7437 158.688 42.6252C158.331 43.5068 157.885 44.2731 157.344 44.9143C156.813 45.5504 156.085 46.0964 155.167 46.5371C154.255 46.9779 153.224 47.1983 152.073 47.1983C149.331 47.1983 147.958 46.1164 147.958 43.9476C147.958 42.5801 148.454 41.5533 149.45 40.8421C150.442 40.1408 151.563 39.7502 152.817 39.675C154.067 39.5949 155.395 39.4546 156.809 39.2493C158.217 39.0489 159.179 38.7283 159.694 38.2926H159.754C159.679 39.0139 159.57 39.6951 159.432 40.3362L159.436 40.3412Z" fill="#20428C"/>
<path d="M187.193 39.5598L180.415 50.424L174.961 21.3777H185.27L187.193 39.5598Z" fill="#20428C"/>
<path d="M187.198 39.5548L187.193 39.5598L180.415 50.424L174.961 21.3777H185.27L187.198 39.5548Z" fill="#20428C"/>
<path d="M208.946 0L193.947 15.9181L199.218 17.2254L199.123 17.3957C199.123 17.3957 199.024 17.6862 198.821 18.2222C196.932 23.4163 186.177 51.6361 172.165 62.901C169.581 64.9847 166.884 66.4823 164.112 67.1585C164.112 67.1585 183.47 78.2431 209.799 19.855L215 21.1473L208.946 0Z" fill="#78C144"/>
<path d="M88.4028 59.6453C88.4028 62.0044 91.3134 61.213 91.3134 62.7507C91.3134 63.5522 90.6985 64.0029 89.7812 64.0029C89.0772 64.0029 88.3731 63.6774 87.9417 63.1615L87.5847 64.0029C87.9962 64.5088 88.8392 64.8995 89.7069 64.8995C91.115 64.8995 92.1067 64.038 92.1067 62.6055C92.1067 60.3665 89.1962 61.1028 89.1962 59.5551C89.1962 58.7787 89.7862 58.2628 90.7184 58.2628C91.2936 58.2628 91.839 58.4632 92.2604 58.8539L92.5827 57.9923C92.1216 57.5916 91.4572 57.3712 90.758 57.3712C89.3697 57.3712 88.3979 58.2428 88.3979 59.6553L88.4028 59.6453Z" fill="#6D6E71"/>
<path d="M93.0389 64.8094H93.8124L94.6652 59.2345H93.8868L93.0389 64.8094Z" fill="#6D6E71"/>
<path d="M94.576 56.8453C94.2438 56.8453 94.0157 57.1609 94.0157 57.5516C94.0157 57.8871 94.219 58.1626 94.5016 58.1626C94.8338 58.1626 95.0669 57.8671 95.0669 57.4363C95.0669 57.1208 94.8586 56.8453 94.571 56.8453H94.576Z" fill="#6D6E71"/>
<path d="M101.562 59.1794C100.848 59.1794 100.248 59.505 99.812 60.1662C99.5939 59.5251 99.108 59.1794 98.4336 59.1794C97.8485 59.1794 97.3328 59.4098 96.9411 59.9258L97.0453 59.2295H96.3015L95.4487 64.8094H96.2271L96.6783 61.8642C96.8668 60.6671 97.3924 60.086 98.1857 60.086C98.8352 60.086 99.1427 60.4968 99.1427 61.213C99.1427 61.3633 99.1278 61.5186 99.103 61.6889L98.6171 64.8144H99.3955L99.8567 61.8341C100.045 60.657 100.576 60.086 101.364 60.086C102.004 60.086 102.311 60.4868 102.311 61.203C102.311 61.3483 102.296 61.5086 102.271 61.6889L101.795 64.8144H102.574L103.05 61.6889C103.08 61.4484 103.104 61.2281 103.104 61.0277C103.104 59.8506 102.529 59.1845 101.557 59.1845L101.562 59.1794Z" fill="#6D6E71"/>
<path d="M107.17 59.1794C106.546 59.1794 106.035 59.4549 105.653 59.9257L105.757 59.2295H105.013L103.848 66.848H104.627L105.083 63.8577C105.36 64.5088 105.901 64.8695 106.64 64.8695C108.033 64.8695 109.069 63.492 109.069 61.5736C109.069 60.071 108.266 59.1744 107.175 59.1744L107.17 59.1794ZM106.605 63.9879C105.787 63.9879 105.326 63.3969 105.326 62.4201C105.326 61.0427 106.03 60.061 107.002 60.061C107.82 60.061 108.281 60.642 108.281 61.6287C108.281 63.0062 107.567 63.9879 106.605 63.9879Z" fill="#6D6E71"/>
<path d="M109.843 64.8094H110.621L111.821 57.0006H111.043L109.843 64.8094Z" fill="#6D6E71"/>
<path d="M114.672 59.1794C113.269 59.1794 112.248 60.5568 112.248 62.4502C112.248 63.9228 113.036 64.8695 114.305 64.8695C114.96 64.8695 115.609 64.584 116.031 64.068L115.699 63.3418C115.391 63.7325 114.905 63.9829 114.37 63.9829C113.448 63.9829 113.006 63.4169 113.006 62.3951V62.33H116.532C116.566 62.0996 116.586 61.8441 116.586 61.5837C116.586 60.081 115.823 59.1744 114.667 59.1744L114.672 59.1794ZM113.091 61.6037C113.284 60.637 113.859 60.0259 114.638 60.0259C115.416 60.0259 115.902 60.5819 115.862 61.6037H113.091Z" fill="#6D6E71"/>
<path d="M117.667 63.4319C117.35 63.4319 117.092 63.7475 117.092 64.1983C117.092 64.5789 117.32 64.8695 117.613 64.8695C117.905 64.8695 118.178 64.5639 118.178 64.1131C118.178 63.7124 117.96 63.4269 117.667 63.4269V63.4319Z" fill="#6D6E71"/>
<path d="M124.46 58.358L124.594 57.4464H120.593L119.457 64.8094H120.27L120.721 61.8341H123.578L123.711 60.9275H120.86L121.257 58.358H124.46Z" fill="#6D6E71"/>
<path d="M128.481 60.1812C128.204 59.5301 127.673 59.1794 126.934 59.1794C125.541 59.1794 124.505 60.5469 124.505 62.4602C124.505 63.9629 125.308 64.8695 126.399 64.8695C127.014 64.8695 127.534 64.594 127.916 64.1232L127.812 64.8094H128.556L129.409 59.2295H128.63L128.486 60.1762L128.481 60.1812ZM126.572 63.9879C125.754 63.9879 125.293 63.3969 125.293 62.4202C125.293 61.0427 126.007 60.061 126.969 60.061C127.787 60.061 128.248 60.642 128.248 61.6288C128.248 63.0062 127.544 63.9879 126.572 63.9879Z" fill="#6D6E71"/>
<path d="M132.235 60.046C132.671 60.046 133.152 60.1712 133.499 60.4868L133.807 59.6853C133.46 59.3698 132.874 59.1794 132.309 59.1794C131.134 59.1794 130.366 59.8857 130.366 60.9876C130.366 62.871 132.751 62.0946 132.751 63.1765C132.751 63.6924 132.369 63.9979 131.625 63.9979C131.04 63.9979 130.465 63.7776 130.132 63.4319L129.785 64.2334C130.132 64.599 130.822 64.8745 131.551 64.8745C132.716 64.8745 133.519 64.2233 133.519 63.0663C133.519 61.213 131.144 62.0044 131.144 60.8774C131.144 60.3916 131.516 60.046 132.24 60.046H132.235Z" fill="#6D6E71"/>
<path d="M136.33 58.0124H135.552L135.364 59.2345H134.625L134.506 60.066H135.235L134.774 63.0563C134.749 63.2015 134.744 63.3518 134.744 63.477C134.744 64.3485 135.205 64.8795 135.879 64.8795C136.221 64.8795 136.583 64.7943 136.876 64.5339L136.712 63.7675C136.534 63.9378 136.306 64.033 136.097 64.033C135.711 64.033 135.532 63.7675 135.532 63.3368C135.532 63.2416 135.542 63.1464 135.557 63.0412L136.018 60.076H137.248L137.377 59.2445H136.147L136.335 58.0224L136.33 58.0124Z" fill="#6D6E71"/>
<path d="M138.299 63.4319C137.982 63.4319 137.724 63.7475 137.724 64.1983C137.724 64.5789 137.952 64.8695 138.244 64.8695C138.537 64.8695 138.81 64.5639 138.81 64.1131C138.81 63.7124 138.591 63.4269 138.299 63.4269V63.4319Z" fill="#6D6E71"/>
<path d="M140.614 59.6453C140.614 62.0044 143.525 61.213 143.525 62.7507C143.525 63.5522 142.91 64.0029 141.993 64.0029C141.289 64.0029 140.585 63.6774 140.153 63.1615L139.796 64.0029C140.208 64.5088 141.051 64.8995 141.919 64.8995C143.327 64.8995 144.318 64.038 144.318 62.6055C144.318 60.3665 141.408 61.1028 141.408 59.5551C141.408 58.7787 141.998 58.2628 142.93 58.2628C143.505 58.2628 144.051 58.4632 144.472 58.8539L144.794 57.9923C144.333 57.5916 143.669 57.3712 142.97 57.3712C141.581 57.3712 140.61 58.2428 140.61 59.6553L140.614 59.6453Z" fill="#6D6E71"/>
<path d="M147.66 59.1794C146.257 59.1794 145.236 60.5568 145.236 62.4502C145.236 63.9228 146.024 64.8695 147.293 64.8695C147.948 64.8695 148.597 64.584 149.019 64.068L148.687 63.3418C148.379 63.7325 147.893 63.9829 147.358 63.9829C146.436 63.9829 145.994 63.4169 145.994 62.3951V62.33H149.52C149.554 62.0996 149.574 61.8441 149.574 61.5837C149.574 60.081 148.811 59.1744 147.655 59.1744L147.66 59.1794ZM146.084 61.6037C146.277 60.637 146.852 60.0259 147.631 60.0259C148.409 60.0259 148.895 60.5819 148.855 61.6037H146.084Z" fill="#6D6E71"/>
<path d="M152.812 60.066C153.362 60.066 153.754 60.3315 153.977 60.8674L154.632 60.3916C154.3 59.5801 153.69 59.1794 152.867 59.1794C151.389 59.1794 150.338 60.5769 150.338 62.4602C150.338 63.9128 151.131 64.8695 152.381 64.8695C153.149 64.8695 153.863 64.4387 154.26 63.7225L153.695 63.1965C153.392 63.7225 152.926 63.9879 152.415 63.9879C151.587 63.9879 151.126 63.3969 151.126 62.4202C151.126 61.0427 151.84 60.061 152.812 60.061V60.066Z" fill="#6D6E71"/>
<path d="M158.752 62.1897C158.564 63.3768 157.989 63.9679 157.18 63.9679C156.526 63.9679 156.199 63.5572 156.199 62.8409C156.199 62.6956 156.214 62.5354 156.238 62.3701L156.714 59.2345H155.936L155.46 62.36C155.425 62.5905 155.41 62.8008 155.41 63.0012C155.41 64.1883 156.01 64.8745 156.952 64.8745C157.552 64.8745 158.093 64.624 158.494 64.0931L158.39 64.8094H159.134L159.987 59.2295H159.208L158.752 62.1847V62.1897Z" fill="#6D6E71"/>
<path d="M162.243 60.066L162.362 59.2345H161.618L160.765 64.8144H161.544L161.975 62.0245C162.169 60.7422 162.739 60.1512 163.597 60.1512C163.676 60.1512 163.725 60.1512 163.8 60.1612L163.944 59.1844C163.175 59.1844 162.63 59.4349 162.243 60.071V60.066Z" fill="#6D6E71"/>
<path d="M168.421 62.34C168.456 62.1096 168.481 61.8542 168.481 61.5937C168.481 60.091 167.717 59.1844 166.562 59.1844C165.158 59.1844 164.137 60.5619 164.137 62.4552C164.137 63.9278 164.925 64.8745 166.195 64.8745C166.849 64.8745 167.499 64.589 167.92 64.0731L167.588 63.3468C167.281 63.7375 166.795 63.9879 166.259 63.9879C165.337 63.9879 164.896 63.4219 164.896 62.4001V62.335H168.421V62.34ZM166.527 60.0209C167.291 60.0209 167.791 60.5769 167.752 61.5987H164.98C165.173 60.632 165.748 60.0209 166.527 60.0209Z" fill="#6D6E71"/>
</g>
<defs>
<clipPath id="clip0_1_25">
<rect width="215" height="68" fill="white"/>
</clipPath>
</defs>
</svg>
