<svg width="34" height="32" viewBox="0 0 34 32" fill="none" xmlns="http://www.w3.org/2000/svg">
<rect width="34" height="32" rx="6" fill="#F7A552"/>
<path d="M8 11C8 10.2044 8.31607 9.44129 8.87868 8.87868C9.44129 8.31607 10.2044 8 11 8H23C23.7956 8 24.5587 8.31607 25.1213 8.87868C25.6839 9.44129 26 10.2044 26 11V21C26 21.7956 25.6839 22.5587 25.1213 23.1213C24.5587 23.6839 23.7956 24 23 24H11C10.2044 24 9.44129 23.6839 8.87868 23.1213C8.31607 22.5587 8 21.7956 8 21V11Z" stroke="white" stroke-width="2" stroke-linecap="round" stroke-linejoin="round"/>
<path d="M20 12H22M20 16H22M12 20H22M12 14C12 14.5304 12.2107 15.0391 12.5858 15.4142C12.9609 15.7893 13.4696 16 14 16C14.5304 16 15.0391 15.7893 15.4142 15.4142C15.7893 15.0391 16 14.5304 16 14C16 13.4696 15.7893 12.9609 15.4142 12.5858C15.0391 12.2107 14.5304 12 14 12C13.4696 12 12.9609 12.2107 12.5858 12.5858C12.2107 12.9609 12 13.4696 12 14Z" stroke="white" stroke-width="2" stroke-linecap="round" stroke-linejoin="round"/>
</svg>
