<svg width="22" height="13" viewBox="0 0 22 13" fill="none" xmlns="http://www.w3.org/2000/svg">
<path d="M8.34303 12.782L6.41103 12.264L7.19803 9.325C6.02009 8.89032 4.92528 8.25717 3.96103 7.453L1.80803 9.607L0.394025 8.193L2.54703 6.039C1.33122 4.58269 0.514245 2.83572 0.176025 0.969L2.14403 0.610001C2.52148 2.68381 3.6147 4.55941 5.23315 5.90987C6.85161 7.26034 8.89265 8.00004 11.0005 8.00004C13.1084 8.00004 15.1494 7.26034 16.7679 5.90987C18.3863 4.55941 19.4796 2.68381 19.857 0.610001L21.825 0.968C21.4867 2.83517 20.6693 4.58251 19.453 6.039L21.607 8.193L20.193 9.607L18.039 7.453C17.0748 8.25717 15.98 8.89032 14.802 9.325L15.59 12.265L13.658 12.782L12.87 9.842C11.6325 10.0555 10.3676 10.0555 9.13003 9.842L8.34303 12.782Z" fill="#010101"/>
</svg>
