<svg width="23" height="21" viewBox="0 0 23 21" fill="none" xmlns="http://www.w3.org/2000/svg">
<path d="M8.51851 17.8889H11.9259C11.9259 18.8259 11.1593 19.5926 10.2222 19.5926C9.28518 19.5926 8.51851 18.8259 8.51851 17.8889ZM17.8889 16.1852V17.037H2.55554V16.1852L4.25925 14.4815V9.37037C4.25925 6.72963 5.96295 4.42963 8.51851 3.66296V3.40741C8.51851 2.47037 9.28518 1.7037 10.2222 1.7037C11.1593 1.7037 11.9259 2.47037 11.9259 3.40741V3.66296C14.4815 4.42963 16.1852 6.72963 16.1852 9.37037V14.4815L17.8889 16.1852ZM14.4815 9.37037C14.4815 6.98519 12.6074 5.11111 10.2222 5.11111C7.83703 5.11111 5.96295 6.98519 5.96295 9.37037V15.3333H14.4815V9.37037Z" fill="white"/>
<ellipse cx="19.1667" cy="3.83333" rx="3.83334" ry="3.83333" fill="#FF0600"/>
</svg>
