<svg width="115" height="115" viewBox="0 0 115 115" fill="none" xmlns="http://www.w3.org/2000/svg">
<circle cx="57.5" cy="57.5" r="57" stroke="#919195"/>
<g clip-path="url(#clip0_18885_13686)">
<path d="M84.2177 84.2164L79.3608 76.9299L58.7149 74.5002L38.0714 76.9299L33.2145 84.2164M74.5015 36.8565L58.7149 30.7812L41.7147 39.2837V47.7862H30.7849V64.7865H44.1443L58.7149 72.073L74.5015 64.7865V36.8565ZM74.5015 50.2135H79.3584V56.2864L74.5015 58.7136" fill="white"/>
<path d="M59.9296 64.7865H30.7812L34.4245 61.1432H56.284L59.9296 64.7865ZM74.5003 47.7862V36.8565L58.7136 30.7812L44.143 38.0725H52.6431L57.7423 42.9294H66.0001L74.5003 47.7862ZM52.6431 52.1562L42.9294 57.0131L47.7863 59.9296L52.6431 57.0131V52.1562Z" fill="#BBD8FF"/>
<path d="M52.643 69.1589L58.7135 72.073L74.5002 64.7865V47.7862M84.2163 84.2164L79.3594 76.9299L58.7135 74.5002L38.07 76.9299L33.2131 84.2164M74.5002 50.2135H79.357V56.2864L74.5002 58.7136M64.7864 52.6431V55.0704M44.1429 38.0725L58.7112 30.7812L74.4978 36.8541V47.7862L66.0024 42.927H59.9319" stroke="#092F63" stroke-width="2" stroke-miterlimit="10" stroke-linecap="round" stroke-linejoin="round"/>
<path d="M48.9976 75.7162L58.7137 84.2164L68.4274 75.7139" stroke="#092F63" stroke-width="2" stroke-miterlimit="10" stroke-linecap="round" stroke-linejoin="round"/>
<path d="M42.927 52.1563L47.7863 48.9976L52.6431 52.1563V57.0132L47.7863 59.9297L42.927 57.0132V52.1563Z" stroke="#092F63" stroke-width="2" stroke-miterlimit="10" stroke-linejoin="round"/>
<path d="M35.6429 47.7863V45.3566M53.8568 47.7863L51.4272 42.927H44.1431L41.7134 47.7863H30.7837V64.7865H59.9297V47.7863H53.8568Z" stroke="#092F63" stroke-width="2" stroke-miterlimit="10" stroke-linecap="round" stroke-linejoin="round"/>
</g>
<defs>
<clipPath id="clip0_18885_13686">
<rect width="57" height="57" fill="white" transform="translate(29 29)"/>
</clipPath>
</defs>
</svg>
