<svg width="24" height="24" viewBox="0 0 24 24" fill="none" xmlns="http://www.w3.org/2000/svg">
<path d="M12.002 9.00101C10.897 9.00101 10.002 9.67301 10.002 10.501C10.002 11.33 10.897 12.001 12.002 12.001C13.107 12.001 14.002 12.673 14.002 13.501C14.002 14.33 13.106 15.001 12.002 15.001M12.002 9.00101C12.872 9.00101 13.614 9.41901 13.888 10.001M12.002 9.00101V8.00101M12.002 15.001C11.132 15.001 10.39 14.584 10.116 14.001M12.002 15.001V16.001" stroke="#78C143" stroke-width="1.5" stroke-linecap="round"/>
<path d="M13.5 2.50101H12C7.522 2.50101 5.282 2.50101 3.891 3.89301C2.5 5.28501 2.5 7.52301 2.5 12C2.5 16.477 2.5 18.718 3.891 20.11C5.282 21.5 7.521 21.5 12 21.5C16.478 21.5 18.718 21.5 20.109 20.11C21.5 18.718 21.5 16.48 21.5 12V10.5" stroke="#78C143" stroke-width="1.5" stroke-linecap="round"/>
<path d="M16.5 7.5L20.676 3.321M21.5 6.978L21.382 3.886C21.382 3.157 20.947 2.703 20.154 2.646L17.03 2.5" stroke="#78C143" stroke-width="1.5" stroke-linecap="round" stroke-linejoin="round"/>
</svg>
