<svg width="20" height="20" viewBox="0 0 20 20" fill="none" xmlns="http://www.w3.org/2000/svg">
<g clip-path="url(#clip0_19009_9410)">
<path d="M0.833252 4.16667H19.1666M8.12492 14.7917V8.54167M11.8749 14.7917V8.54167M11.8749 0.833336H8.12492C7.7934 0.833336 7.47546 0.965032 7.24104 1.19945C7.00661 1.43387 6.87492 1.75182 6.87492 2.08334V4.16667H13.1249V2.08334C13.1249 1.75182 12.9932 1.43387 12.7588 1.19945C12.5244 0.965032 12.2064 0.833336 11.8749 0.833336ZM15.7166 18.0167C15.6934 18.3298 15.5524 18.6226 15.322 18.836C15.0916 19.0494 14.7889 19.1675 14.4749 19.1667H5.52492C5.21089 19.1675 4.9082 19.0494 4.67781 18.836C4.44742 18.6226 4.30643 18.3298 4.28325 18.0167L3.12492 4.16667H16.8749L15.7166 18.0167Z" stroke="white" stroke-width="1.5" stroke-linecap="round" stroke-linejoin="round"/>
</g>
<defs>
<clipPath id="clip0_19009_9410">
<rect width="20" height="20" fill="white"/>
</clipPath>
</defs>
</svg>
