<svg width="41" height="14" viewBox="0 0 41 14" fill="none" xmlns="http://www.w3.org/2000/svg">
<g clip-path="url(#clip0_19365_6016)">
<path d="M15.5663 0.4585L10.1987 13.5765H6.69667L4.05558 3.10625C3.895 2.46225 3.75663 2.226 3.26804 1.95475C2.47196 1.512 1.15654 1.09725 0 0.83825L0.0785833 0.4585H5.71608C6.08448 0.458121 6.44088 0.592663 6.72094 0.837838C7.001 1.08301 7.18628 1.42267 7.24333 1.7955L8.63904 9.387L12.0865 0.4585H15.5663ZM29.2894 9.29425C29.303 5.831 24.6154 5.64025 24.6478 4.09325C24.6581 3.6225 25.0954 3.122 26.0521 2.99425C27.1732 2.88517 28.3024 3.08833 29.3201 3.58225L29.901 0.799749C28.9101 0.417899 27.8607 0.220546 26.802 0.216999C23.5272 0.216999 21.2226 2.002 21.2021 4.55525C21.1816 6.4435 22.8472 7.49525 24.1029 8.12525C25.3944 8.7675 25.8283 9.1805 25.8215 9.7545C25.8129 10.6365 24.793 11.0232 23.8398 11.039C22.1742 11.0652 21.209 10.5787 20.4368 10.2112L19.8372 13.0847C20.611 13.4487 22.0392 13.7672 23.5203 13.7812C27.0002 13.7812 29.2774 12.0207 29.2894 9.29425ZM37.9352 13.5765H41L38.3265 0.4585H35.4975C35.195 0.454911 34.8986 0.544848 34.6468 0.716562C34.3951 0.888275 34.1998 1.13378 34.0864 1.421L29.1168 13.5765H32.595L33.2869 11.6165H37.5372L37.9352 13.5765ZM34.2401 8.9285L35.9826 4.00225L36.9871 8.9285H34.2401ZM20.3001 0.4585L17.5617 13.5765H14.2475L16.9894 0.4585H20.3001Z" fill="white"/>
</g>
<defs>
<clipPath id="clip0_19365_6016">
<rect width="41" height="14" fill="white"/>
</clipPath>
</defs>
</svg>
