<svg width="22" height="22" viewBox="0 0 22 22" fill="none" xmlns="http://www.w3.org/2000/svg">
<g clip-path="url(#clip0_18922_14589)">
<path d="M3.33167 5.27771C6.06746 3.85687 9.5485 2.54604 12.7962 1.74717C13.7464 1.51342 14.7281 1.86496 15.2222 2.70921C15.5751 3.31237 16.006 4.13921 16.4615 5.21996M13.321 14.2647C13.3646 15.241 14.1172 15.9683 15.093 16.0073C15.5902 16.0275 16.2085 16.0417 16.9584 16.0417C17.7082 16.0417 18.3265 16.0275 18.8238 16.0073C19.8 15.9683 20.5522 15.241 20.5957 14.2647C20.6131 13.8673 20.625 13.392 20.625 12.8333C20.625 12.2746 20.6131 11.7993 20.5957 11.402C20.5522 10.4257 19.7996 9.69833 18.8238 9.65937C18.2023 9.63551 17.5803 9.62405 16.9584 9.625C16.2085 9.625 15.5902 9.63921 15.093 9.65937C14.1167 9.69833 13.3646 10.4257 13.321 11.402C13.3008 11.8788 13.291 12.356 13.2917 12.8333C13.2917 13.3925 13.3036 13.8673 13.321 14.2647Z" stroke="white" stroke-width="1.5" stroke-linecap="round" stroke-linejoin="round"/>
<path d="M18.7339 9.65571C18.7053 8.88912 18.6605 8.12323 18.5996 7.35854C18.5043 6.18933 17.5963 5.30979 16.4262 5.22866C15.0787 5.13516 12.9997 5.04166 10.0833 5.04166C7.16696 5.04166 5.0875 5.13516 3.74 5.22866C2.57033 5.30933 1.66237 6.18933 1.56704 7.35854C1.4685 8.56579 1.375 10.3643 1.375 12.8333C1.375 15.3024 1.4685 17.1004 1.56704 18.3081C1.66237 19.4773 2.57033 20.3569 3.74046 20.438C5.0875 20.5315 7.16696 20.625 10.0833 20.625C12.9997 20.625 15.0792 20.5315 16.4262 20.438C17.5963 20.3573 18.5043 19.4773 18.5996 18.3081C18.6496 17.6972 18.6982 16.935 18.7339 16.011M16.5 12.375V13.2917" stroke="white" stroke-width="1.5" stroke-linecap="round" stroke-linejoin="round"/>
</g>
<defs>
<clipPath id="clip0_18922_14589">
<rect width="22" height="22" fill="white"/>
</clipPath>
</defs>
</svg>
